<mxfile host="app.diagrams.net" modified="2022-10-18T09:27:57.078Z" agent="5.0 (Macintosh; Intel Mac OS X 10_15_7) AppleWebKit/537.36 (KHTML, like Gecko) Chrome/106.0.0.0 Safari/537.36" etag="iMzGJZ_22jft86loUlad" version="18.1.2" type="github">
  <diagram id="cKEFHMUjiqopljUC_EgE" name="Page-1">
    <mxGraphModel dx="1077" dy="577" grid="1" gridSize="10" guides="1" tooltips="1" connect="1" arrows="1" fold="1" page="1" pageScale="1" pageWidth="827" pageHeight="1169" math="0" shadow="0">
      <root>
        <mxCell id="0" />
        <mxCell id="1" parent="0" />
        <mxCell id="iTW2oAXgUfm2QirYyq5k-2" style="edgeStyle=orthogonalEdgeStyle;rounded=0;orthogonalLoop=1;jettySize=auto;html=1;fontSize=14;" edge="1" parent="1" source="iTW2oAXgUfm2QirYyq5k-1">
          <mxGeometry relative="1" as="geometry">
            <mxPoint x="385" y="170" as="targetPoint" />
            <Array as="points">
              <mxPoint x="385" y="120" />
              <mxPoint x="385" y="120" />
            </Array>
          </mxGeometry>
        </mxCell>
        <mxCell id="iTW2oAXgUfm2QirYyq5k-1" value="&amp;nbsp;环境ENV" style="rounded=0;whiteSpace=wrap;html=1;" vertex="1" parent="1">
          <mxGeometry x="330" y="50" width="110" height="50" as="geometry" />
        </mxCell>
        <mxCell id="iTW2oAXgUfm2QirYyq5k-4" style="edgeStyle=orthogonalEdgeStyle;rounded=0;orthogonalLoop=1;jettySize=auto;html=1;fontSize=14;" edge="1" parent="1" source="iTW2oAXgUfm2QirYyq5k-3">
          <mxGeometry relative="1" as="geometry">
            <mxPoint x="190" y="280" as="targetPoint" />
          </mxGeometry>
        </mxCell>
        <mxCell id="iTW2oAXgUfm2QirYyq5k-6" value="是" style="edgeLabel;html=1;align=center;verticalAlign=middle;resizable=0;points=[];fontSize=14;" vertex="1" connectable="0" parent="iTW2oAXgUfm2QirYyq5k-4">
          <mxGeometry x="-0.049" y="-1" relative="1" as="geometry">
            <mxPoint as="offset" />
          </mxGeometry>
        </mxCell>
        <mxCell id="iTW2oAXgUfm2QirYyq5k-7" style="edgeStyle=orthogonalEdgeStyle;rounded=0;orthogonalLoop=1;jettySize=auto;html=1;fontSize=14;" edge="1" parent="1" source="iTW2oAXgUfm2QirYyq5k-3">
          <mxGeometry relative="1" as="geometry">
            <mxPoint x="530" y="280" as="targetPoint" />
          </mxGeometry>
        </mxCell>
        <mxCell id="iTW2oAXgUfm2QirYyq5k-8" value="否" style="edgeLabel;html=1;align=center;verticalAlign=middle;resizable=0;points=[];fontSize=14;" vertex="1" connectable="0" parent="iTW2oAXgUfm2QirYyq5k-7">
          <mxGeometry x="-0.4018" y="-3" relative="1" as="geometry">
            <mxPoint as="offset" />
          </mxGeometry>
        </mxCell>
        <mxCell id="iTW2oAXgUfm2QirYyq5k-3" value="是否安装filebeat" style="rhombus;whiteSpace=wrap;html=1;fontSize=14;" vertex="1" parent="1">
          <mxGeometry x="320" y="170" width="135" height="80" as="geometry" />
        </mxCell>
        <mxCell id="iTW2oAXgUfm2QirYyq5k-10" style="edgeStyle=orthogonalEdgeStyle;rounded=0;orthogonalLoop=1;jettySize=auto;html=1;fontSize=14;" edge="1" parent="1" source="iTW2oAXgUfm2QirYyq5k-9">
          <mxGeometry relative="1" as="geometry">
            <mxPoint x="190" y="400.0000000000001" as="targetPoint" />
          </mxGeometry>
        </mxCell>
        <mxCell id="iTW2oAXgUfm2QirYyq5k-9" value="过滤是否有需要安装的节点" style="rounded=0;whiteSpace=wrap;html=1;fontSize=14;" vertex="1" parent="1">
          <mxGeometry x="130" y="280" width="120" height="60" as="geometry" />
        </mxCell>
        <mxCell id="iTW2oAXgUfm2QirYyq5k-12" style="edgeStyle=orthogonalEdgeStyle;rounded=0;orthogonalLoop=1;jettySize=auto;html=1;fontSize=14;exitX=1;exitY=0.5;exitDx=0;exitDy=0;" edge="1" parent="1" source="iTW2oAXgUfm2QirYyq5k-11">
          <mxGeometry relative="1" as="geometry">
            <mxPoint x="340" y="520" as="targetPoint" />
            <mxPoint x="400" y="440.0000000000001" as="sourcePoint" />
          </mxGeometry>
        </mxCell>
        <mxCell id="iTW2oAXgUfm2QirYyq5k-14" style="edgeStyle=orthogonalEdgeStyle;rounded=0;orthogonalLoop=1;jettySize=auto;html=1;fontSize=14;exitX=0;exitY=0.5;exitDx=0;exitDy=0;entryX=0;entryY=0.5;entryDx=0;entryDy=0;" edge="1" parent="1" source="iTW2oAXgUfm2QirYyq5k-11" target="iTW2oAXgUfm2QirYyq5k-1">
          <mxGeometry relative="1" as="geometry">
            <mxPoint x="50" y="520" as="targetPoint" />
            <mxPoint x="40" y="440.0000000000001" as="sourcePoint" />
            <Array as="points">
              <mxPoint x="50" y="440" />
              <mxPoint x="50" y="75" />
            </Array>
          </mxGeometry>
        </mxCell>
        <mxCell id="iTW2oAXgUfm2QirYyq5k-40" value="否" style="edgeLabel;html=1;align=center;verticalAlign=middle;resizable=0;points=[];fontSize=14;" vertex="1" connectable="0" parent="iTW2oAXgUfm2QirYyq5k-14">
          <mxGeometry x="-0.9001" y="-3" relative="1" as="geometry">
            <mxPoint as="offset" />
          </mxGeometry>
        </mxCell>
        <mxCell id="iTW2oAXgUfm2QirYyq5k-11" value="是否有节点要加配置" style="rhombus;whiteSpace=wrap;html=1;fontSize=14;" vertex="1" parent="1">
          <mxGeometry x="120" y="400" width="140" height="80" as="geometry" />
        </mxCell>
        <mxCell id="iTW2oAXgUfm2QirYyq5k-13" value="是" style="text;html=1;align=center;verticalAlign=middle;resizable=0;points=[];autosize=1;strokeColor=none;fillColor=none;fontSize=14;" vertex="1" parent="1">
          <mxGeometry x="290" y="430" width="30" height="20" as="geometry" />
        </mxCell>
        <mxCell id="iTW2oAXgUfm2QirYyq5k-17" style="edgeStyle=orthogonalEdgeStyle;rounded=0;orthogonalLoop=1;jettySize=auto;html=1;fontSize=14;" edge="1" parent="1" source="iTW2oAXgUfm2QirYyq5k-16">
          <mxGeometry relative="1" as="geometry">
            <mxPoint x="530" y="400.0000000000001" as="targetPoint" />
          </mxGeometry>
        </mxCell>
        <mxCell id="iTW2oAXgUfm2QirYyq5k-16" value="上传软件包" style="rounded=0;whiteSpace=wrap;html=1;fontSize=14;" vertex="1" parent="1">
          <mxGeometry x="470" y="280" width="120" height="60" as="geometry" />
        </mxCell>
        <mxCell id="iTW2oAXgUfm2QirYyq5k-19" style="edgeStyle=orthogonalEdgeStyle;rounded=0;orthogonalLoop=1;jettySize=auto;html=1;fontSize=14;" edge="1" parent="1" source="iTW2oAXgUfm2QirYyq5k-18">
          <mxGeometry relative="1" as="geometry">
            <mxPoint x="340" y="650" as="targetPoint" />
          </mxGeometry>
        </mxCell>
        <mxCell id="iTW2oAXgUfm2QirYyq5k-18" value="生成filebeat.yml配置文件" style="rounded=0;whiteSpace=wrap;html=1;fontSize=14;" vertex="1" parent="1">
          <mxGeometry x="280" y="520" width="120" height="60" as="geometry" />
        </mxCell>
        <mxCell id="iTW2oAXgUfm2QirYyq5k-21" style="edgeStyle=orthogonalEdgeStyle;rounded=0;orthogonalLoop=1;jettySize=auto;html=1;fontSize=14;" edge="1" parent="1" source="iTW2oAXgUfm2QirYyq5k-20">
          <mxGeometry relative="1" as="geometry">
            <mxPoint x="340" y="760" as="targetPoint" />
          </mxGeometry>
        </mxCell>
        <mxCell id="iTW2oAXgUfm2QirYyq5k-20" value="上传filebeat目录" style="rounded=0;whiteSpace=wrap;html=1;fontSize=14;" vertex="1" parent="1">
          <mxGeometry x="280" y="650" width="120" height="60" as="geometry" />
        </mxCell>
        <mxCell id="iTW2oAXgUfm2QirYyq5k-29" style="edgeStyle=orthogonalEdgeStyle;rounded=0;orthogonalLoop=1;jettySize=auto;html=1;fontSize=14;" edge="1" parent="1" source="iTW2oAXgUfm2QirYyq5k-24">
          <mxGeometry relative="1" as="geometry">
            <mxPoint x="340" y="520.0000000000001" as="targetPoint" />
            <Array as="points">
              <mxPoint x="340" y="440" />
            </Array>
          </mxGeometry>
        </mxCell>
        <mxCell id="iTW2oAXgUfm2QirYyq5k-24" value="解压" style="rounded=0;whiteSpace=wrap;html=1;fontSize=14;" vertex="1" parent="1">
          <mxGeometry x="470" y="400" width="120" height="60" as="geometry" />
        </mxCell>
        <mxCell id="iTW2oAXgUfm2QirYyq5k-32" value="是" style="edgeStyle=orthogonalEdgeStyle;rounded=0;orthogonalLoop=1;jettySize=auto;html=1;fontSize=14;entryX=0;entryY=0.5;entryDx=0;entryDy=0;" edge="1" parent="1" source="iTW2oAXgUfm2QirYyq5k-31" target="iTW2oAXgUfm2QirYyq5k-34">
          <mxGeometry relative="1" as="geometry">
            <mxPoint x="190" y="900" as="targetPoint" />
            <Array as="points">
              <mxPoint x="170" y="800" />
              <mxPoint x="170" y="1040" />
            </Array>
          </mxGeometry>
        </mxCell>
        <mxCell id="iTW2oAXgUfm2QirYyq5k-33" value="否" style="edgeStyle=orthogonalEdgeStyle;rounded=0;orthogonalLoop=1;jettySize=auto;html=1;fontSize=14;entryX=0.5;entryY=0;entryDx=0;entryDy=0;" edge="1" parent="1" source="iTW2oAXgUfm2QirYyq5k-31" target="iTW2oAXgUfm2QirYyq5k-35">
          <mxGeometry relative="1" as="geometry">
            <mxPoint x="480" y="890" as="targetPoint" />
          </mxGeometry>
        </mxCell>
        <mxCell id="iTW2oAXgUfm2QirYyq5k-31" value="&lt;span style=&quot;&quot;&gt;是否已经是服务&lt;/span&gt;" style="rhombus;whiteSpace=wrap;html=1;fontSize=14;" vertex="1" parent="1">
          <mxGeometry x="270" y="760" width="140" height="80" as="geometry" />
        </mxCell>
        <mxCell id="iTW2oAXgUfm2QirYyq5k-34" value="重启服务" style="rounded=0;whiteSpace=wrap;html=1;fontSize=14;" vertex="1" parent="1">
          <mxGeometry x="280" y="1010" width="120" height="60" as="geometry" />
        </mxCell>
        <mxCell id="iTW2oAXgUfm2QirYyq5k-38" style="edgeStyle=orthogonalEdgeStyle;rounded=0;orthogonalLoop=1;jettySize=auto;html=1;entryX=0.5;entryY=0;entryDx=0;entryDy=0;fontSize=14;" edge="1" parent="1" source="iTW2oAXgUfm2QirYyq5k-35" target="iTW2oAXgUfm2QirYyq5k-37">
          <mxGeometry relative="1" as="geometry" />
        </mxCell>
        <mxCell id="iTW2oAXgUfm2QirYyq5k-35" value="添加服务配置" style="rounded=0;whiteSpace=wrap;html=1;fontSize=14;" vertex="1" parent="1">
          <mxGeometry x="420" y="850" width="120" height="50" as="geometry" />
        </mxCell>
        <mxCell id="iTW2oAXgUfm2QirYyq5k-39" style="edgeStyle=orthogonalEdgeStyle;rounded=0;orthogonalLoop=1;jettySize=auto;html=1;entryX=1;entryY=0.5;entryDx=0;entryDy=0;fontSize=14;" edge="1" parent="1" source="iTW2oAXgUfm2QirYyq5k-37" target="iTW2oAXgUfm2QirYyq5k-34">
          <mxGeometry relative="1" as="geometry">
            <Array as="points">
              <mxPoint x="480" y="1040" />
            </Array>
          </mxGeometry>
        </mxCell>
        <mxCell id="iTW2oAXgUfm2QirYyq5k-37" value="更新系统服务" style="rounded=0;whiteSpace=wrap;html=1;fontSize=14;" vertex="1" parent="1">
          <mxGeometry x="420" y="940" width="120" height="60" as="geometry" />
        </mxCell>
      </root>
    </mxGraphModel>
  </diagram>
</mxfile>
